<svg id="Layer_1" data-name="Layer 1" xmlns="http://www.w3.org/2000/svg" viewBox="0 0 480 480"><defs><style>.cls-1{fill:#fff;stroke:#d8bc93;stroke-width:18px;}.cls-1,.cls-2{stroke-miterlimit:10;}.cls-2{fill:none;stroke:#365e78;stroke-width:8px;}.cls-3{fill:#365e78;}</style></defs><title>Favicon-480x480px-v2</title><circle class="cls-1" cx="240" cy="240" r="220"/><circle class="cls-2" cx="240" cy="240" r="220"/><path class="cls-3" d="M261,232.34v31.47l40.66,5.12V332L240,270.38,178.37,332V268.93L219,263.81V232.34l-54.94,6.14V360.34L240,436.27l75.94-75.93V238.48ZM364.19,106.62a96.11,96.11,0,0,0-25,8c-23,11-34.69,27.57-34.69,27.57a70.07,70.07,0,0,1,9.47-.61c3.34,0,6.57.2,9.64.49a342.44,342.44,0,0,0-23.49,59.21s-32.8-4.2-44.76-4.74V132.87a74.88,74.88,0,0,1,22.08,5.42L240,63.73h0l-37.45,74.56a74.88,74.88,0,0,1,22.08-5.42V196.5c-12,.54-44.76,4.74-44.76,4.74A342.44,342.44,0,0,0,156.38,142c3.07-.29,6.3-.49,9.64-.49a70.07,70.07,0,0,1,9.47.61s-11.68-16.6-34.69-27.57a96.11,96.11,0,0,0-25-8A99.66,99.66,0,0,0,100,105.15s14.66,10.92,26.32,31.86c12,21.51,23.91,49.44,32.7,78.51,2.08,6.9,4.25,17.7,4.25,17.7L224.65,226l0,51.83L240,262.5l15.37,15.36,0-51.83,61.38,7.19s2.17-10.8,4.25-17.7c8.79-29.07,20.72-57,32.7-78.51C365.34,116.07,380,105.15,380,105.15A99.66,99.66,0,0,0,364.19,106.62Z"/></svg>